<svg class="svg_cloth" xmlns="http://www.w3.org/2000/svg" xmlns:xlink="http://www.w3.org/1999/xlink">
 <g>

<path id="svg_2" d="m376,620c0,0 0,9 0,9c0,0 -34,54 -34,54c0,0 -2,-8 2,16c4,24 4,24 4,24c0,0 1,16 1,16c0,0 4,-18 -1,27c-5,45 -5,45 -5,45c0,0 2,210 2,210c0,0 7,34 7,34c0,0 12,-11 12,30c0,41 0,41 0,41c0,0 2,17 7,35c5,18 11,-38 5,18c-6,56 -6,38 -6,56c0,18 2,-8 0,18c-2,26 -5,5 -2,26c3,21 3,21 3,21c0,0 1,-8 -4,10c-5,18 -4,3 -5,18c-1,15 -3,24 -3,24c0,0 57,12 57,12c0,0 12,14 24,-2c12,-16 12,-16 12,-16c0,0 4,-21 4,-21c0,0 16,-14 16,-14c0,0 -8,-33 -8,-33c0,0 -2,-15 -2,-15c0,0 9,-30 9,-30c0,0 -5,-151 -5,-151c0,0 -4,-35 -4,-35c0,0 6,-31 6,-31c-0.02941,-92.61765 11,-111 11,-111c0,0 9,34 17,62c8,28 8,28 8,28c0,0 -3,-14 4,35c7,49 5,31 7,49c2,18 -7,-4 2,18c9,22 6,-14 9,22c3,36 -8,-50 3,36c11,86 27,45 11,86c-16,41 -16,41 -16,41c0,0 2,22 11,32c8.05882,11.29412 -14,5 -14,26c0,21 0,21 0,21c0,0 -5,-2 0,12c5,14 -17,14 5,14c22,0 2,-1 22,0c20,1 0,-3 20,1c20,4 4,1 20,4c16,3 2,14 16,3c14,-11 12,11 14,-11c2,-22 1,-7 2,-22c1,-15 1,-15 1,-15c0,0 3,-14 3,-14c0,0 -13,-35 -13,-35c0,0 21,-21 21,-21c0,0 4,-22 4,-22c0,0 -12,-28 -12,-28c0,0 0,-64 0,-64c0,0 10,-5 0,-68c-10,-63 -2,-42 -10,-63c-8,-21 -8,-21 -8,-21c0,0 6,-16 6,-16c0,0 2,-41 2,-41c0,0 -14,-47.2 -14,-47.2c0,0 2,-105.4 2,-105.4c0,0 9,-16 9,-16.4c0,0.4 3,-18.2 3,-48.2c0,-30 8,-6 0,-30c-8,-24 12,-3 -8,-24c-20,-21 14,-3 -20,-21c-34,-18 38,-6 -34,-18c-72,-12 32,1 -72,-12c-104,-13 -104,-11.8 -104,-11.8z" />

</g>
</svg>